:FULLY-SPECIFIED
:FORCE-ALL-JOINTS-BE-3DOF
:DEGREES
510
root 6.19375 15.6991 -5.16891 -66.9566 71.4983 -71.6081
lfemur -28.1908 -15.3787 -23.4043
ltibia 60.4071 0 0
lfoot -28.3771 -3.97176 0
ltoes 7.92786 0 0
rfemur -53.9833 2.12831 3.37649
rtibia 73.9278 0 0
rfoot 7.6433 7.72111 0
rtoes -24.7642 0 0
lowerback 8.01692 0.273089 -0.603425
upperback 2.7025 0.790726 3.44839
thorax -1.80365 0.522906 3.81258
lowerneck -6.89271 -12.5944 -3.95907
upperneck 9.59959 -16.9168 4.01411
head 5.01297 -8.19059 0.693627
lclavicle 3.10282e-014 2.11113e-014 0
lhumerus -47.3914 -28.1861 113.944
lradius 57.9451 0 0
lwrist 11.8023 0 0
lhand -3.0227 -1.19405 0
lfingers 7.12502 0 0
lthumb 22.6532 27.0232 0
rclavicle 3.10282e-014 2.11113e-014 0
rhumerus -24.5516 20.0136 -93.9385
rradius 102.382 0 0
rwrist -3.79689 0 0
rhand -19.1619 -22.5295 0
rfingers 7.12502 0 0
rthumb 7.14409 -772.184 0
511
root 6.27169 15.6309 -5.10519 -72.607 70.4215 -77.1264
lfemur -28.4018 -15.017 -23.2964
ltibia 61.7156 0 0
lfoot -28.7901 -3.8851 0
ltoes 6.97907 0 0
rfemur -53.652 1.96087 2.80422
rtibia 73.0507 0 0
rfoot 7.12412 7.67215 0
rtoes -25.7194 0 0
lowerback 8.29882 0.345291 -0.504621
upperback 2.90862 0.925071 3.6751
thorax -1.75739 0.598019 3.98051
lowerneck -6.74406 -12.8325 -4.13353
upperneck 9.79596 -17.2416 4.17379
head 5.08429 -8.3419 0.736095
lclavicle 3.4378e-014 2.33102e-014 0
lhumerus -47.2199 -27.8628 113.857
lradius 58.0915 0 0
lwrist 12.4208 0 0
lhand -3.94062 -1.39328 0
lfingers 7.12502 0 0
lthumb 21.7706 26.9058 0
rclavicle 3.4378e-014 2.33102e-014 0
rhumerus -22.8953 19.5541 -93.6651
rradius 104.245 0 0
rwrist -6.18104 0 0
rhand -19.7838 -22.7013 0
rfingers 7.12502 0 0
rthumb 6.54367 -772.369 0
512
root 6.3488 15.5623 -5.04182 -78.2964 69.3196 -82.6887
lfemur -28.6225 -14.6358 -23.1818
ltibia 63.0327 0 0
lfoot -29.2038 -3.79461 0
ltoes 6.02015 0 0
rfemur -53.3006 1.78529 2.23244
rtibia 72.147 0 0
rfoot 6.59588 7.61303 0
rtoes -26.6929 0 0
lowerback 8.5813 0.418159 -0.402798
upperback 3.11557 1.06049 3.90314
thorax -1.71055 0.673662 4.14806
lowerneck -6.59399 -13.0688 -4.3066
upperneck 9.99072 -17.5641 4.33361
head 5.15479 -8.49214 0.778478
lclavicle 3.77242e-014 2.55138e-014 0
lhumerus -47.0439 -27.5332 113.762
lradius 58.2371 0 0
lwrist 13.0433 0 0
lhand -4.87832 -1.59748 0
lfingers 7.12502 0 0
lthumb 20.869 26.7849 0
rclavicle 3.77242e-014 2.55138e-014 0
rhumerus -21.2243 19.0823 -93.3828
rradius 106.115 0 0
rwrist -8.58702 0 0
rhand -20.415 -22.8749 0
rfingers 7.12502 0 0
rthumb 5.93439 -772.555 0
513
root 6.42497 15.4934 -4.97891 -84.0081 68.1987 -88.2781
lfemur -28.8507 -14.2376 -23.0615
ltibia 64.3528 0 0
lfoot -29.617 -3.70031 0
ltoes 5.05501 0 0
rfemur -52.932 1.60223 1.66337
rtibia 71.2206 0 0
rfoot 6.06122 7.54476 0
rtoes -27.6804 0 0
lowerback 8.86336 0.491353 -0.298641
upperback 3.32261 1.19639 4.13167
thorax -1.66331 0.749498 4.31481
lowerneck -6.44303 -13.3028 -4.47788
upperneck 10.1834 -17.8839 4.49311
head 5.22433 -8.64099 0.820669
lclavicle 4.10555e-014 2.7713e-014 0
lhumerus -46.8641 -27.1985 113.658
lradius 58.3811 0 0
lwrist 13.6679 0 0
lhand -5.83184 -1.80569 0
lfingers 7.12502 0 0
lthumb 19.9522 26.6613 0
rclavicle 4.10555e-014 2.7713e-014 0
rhumerus -19.5428 18.6007 -93.0925
rradius 107.989 0 0
rwrist -11.0072 0 0
rhand -21.0528 -23.0494 0
rfingers 7.12502 0 0
rthumb 5.31872 -772.742 0
514
root 6.50008 15.4246 -4.91653 -89.7252 67.0647 -93.8779
lfemur -29.0844 -13.8248 -22.9363
ltibia 65.6701 0 0
lfoot -30.0285 -3.60219 0
ltoes 4.08754 0 0
rfemur -52.5493 1.41233 1.09927
rtibia 70.2756 0 0
rfoot 5.52277 7.46836 0
rtoes -28.6772 0 0
lowerback 9.14402 0.564533 -0.192835
upperback 3.52899 1.33213 4.35986
thorax -1.61584 0.825196 4.48032
lowerneck -6.2917 -13.5342 -4.64697
upperneck 10.3737 -18.2 4.65184
head 5.29274 -8.7881 0.86256
lclavicle 4.43604e-014 2.98991e-014 0
lhumerus -46.6813 -26.8596 113.546
lradius 58.5233 0 0
lwrist 14.2929 0 0
lhand -6.79718 -2.01694 0
lfingers 7.12502 0 0
lthumb 19.0241 26.5356 0
rclavicle 4.43604e-014 2.98991e-014 0
rhumerus -17.8548 18.1117 -92.795
rradius 109.86 0 0
rwrist -13.4339 0 0
rhand -21.6947 -23.224 0
rfingers 7.12502 0 0
rthumb 4.69909 -772.93 0
